<svg width="212" height="28" viewBox="0 0 212 28" fill="none" xmlns="http://www.w3.org/2000/svg">
<g clip-path="url(#clip0_1_52058)">
<g clip-path="url(#clip1_1_52058)">
<path fill-rule="evenodd" clip-rule="evenodd" d="M42.5841 13.8545H48.8876C48.4678 12.2531 47.3178 11.6038 45.9172 11.6038C44.3772 11.6038 43.143 12.4432 42.5841 13.8545ZM52.5858 16.5932H42.3605C42.7803 18.6558 44.5164 19.4158 46.029 19.4158C47.934 19.4158 48.7484 18.2761 48.7484 18.2761H52.2777C51.2124 20.9882 48.664 22.4792 45.9173 22.4792C42.1347 22.4792 38.8291 19.6853 38.8291 15.4556C38.8291 11.2505 42.1072 8.64648 45.8053 8.64648C49.3918 8.64648 53.0352 11.0603 52.5858 16.5932Z" fill="white"/>
<path fill-rule="evenodd" clip-rule="evenodd" d="M87.323 15.5637C87.323 13.4478 86.0341 11.7937 83.9054 11.7937C81.7749 11.7937 80.3465 13.4478 80.3465 15.5637C80.3465 17.6796 81.7749 19.3338 83.9054 19.3338C86.0341 19.3338 87.323 17.6796 87.323 15.5637ZM76.6758 15.5901C76.6758 11.2505 80.1503 8.64648 83.9053 8.64648C87.6879 8.64648 90.9935 11.2769 90.9935 15.535C90.9935 19.8485 87.5738 22.4789 83.7915 22.4789C79.9814 22.4789 76.6758 19.8485 76.6758 15.5901Z" fill="white"/>
<path fill-rule="evenodd" clip-rule="evenodd" d="M105.991 14.9942V22.3444H102.263V15.8069C102.263 15.3454 102.601 11.9284 99.9107 11.794C98.5922 11.7122 96.2398 12.4165 96.2398 15.9704V22.3444H92.542V8.78124H95.9366L95.9477 10.6641C95.9477 10.6641 97.4783 8.64648 100.333 8.64648C103.947 8.64648 105.991 11.2505 105.991 14.9942Z" fill="white"/>
<path fill-rule="evenodd" clip-rule="evenodd" d="M119.617 11.5221C118.44 11.5221 117.936 12.0919 117.936 12.6618C117.936 13.5829 119.197 13.8545 120.037 14.018C122.533 14.5324 125.054 15.2658 125.054 18.139C125.054 20.9331 122.672 22.4792 119.786 22.4792C116.565 22.4792 114.071 20.5819 113.902 17.7063H117.347C117.432 18.519 117.993 19.5769 119.702 19.5769C121.13 19.5769 121.468 18.846 121.468 18.2761C121.468 17.2712 120.486 16.9729 119.533 16.7564C117.881 16.4031 114.322 15.7539 114.322 12.6618C114.322 10.0027 116.957 8.64648 119.674 8.64648C122.811 8.64648 124.885 10.4908 125.054 12.7699H121.606C121.495 12.3084 121.048 11.5221 119.617 11.5221Z" fill="white"/>
<path fill-rule="evenodd" clip-rule="evenodd" d="M136.381 15.5637C136.381 13.311 135.119 11.9835 133.299 11.9835C131.59 11.9835 129.879 13.1762 129.879 15.5637C129.879 17.9492 131.59 19.1439 133.299 19.1439C135.119 19.1439 136.381 17.8144 136.381 15.5637ZM139.883 8.78124V27.7686H136.381V21.0146C135.485 21.9908 134.223 22.4789 132.765 22.4789C129.209 22.4789 126.238 19.6587 126.238 15.5637C126.238 11.4667 129.209 8.64648 132.765 8.64648C135.561 8.64648 136.608 10.463 136.608 10.463L136.602 8.78124H139.883Z" fill="white"/>
<path fill-rule="evenodd" clip-rule="evenodd" d="M159.904 13.8545H166.208C165.788 12.2531 164.638 11.6038 163.238 11.6038C161.698 11.6038 160.463 12.4432 159.904 13.8545ZM169.906 16.5932H159.679C160.101 18.6558 161.837 19.4158 163.349 19.4158C165.254 19.4158 166.069 18.2761 166.069 18.2761H169.598C168.533 20.9882 165.984 22.4792 163.238 22.4792C159.455 22.4792 156.149 19.6853 156.149 15.4556C156.149 11.2505 159.428 8.64648 163.126 8.64648C166.712 8.64648 170.356 11.0603 169.906 16.5932Z" fill="white"/>
<path fill-rule="evenodd" clip-rule="evenodd" d="M174.79 13.8545H181.093C180.674 12.2531 179.524 11.6038 178.123 11.6038C176.583 11.6038 175.349 12.4432 174.79 13.8545ZM184.792 16.5932H174.567C174.986 18.6558 176.722 19.4158 178.235 19.4158C180.14 19.4158 180.954 18.2761 180.954 18.2761H184.484C183.418 20.9882 180.87 22.4792 178.123 22.4792C174.341 22.4792 171.035 19.6853 171.035 15.4556C171.035 11.2505 174.313 8.64648 178.011 8.64648C181.598 8.64648 185.241 11.0603 184.792 16.5932Z" fill="white"/>
<path fill-rule="evenodd" clip-rule="evenodd" d="M197.267 19.3064V22.3431H185.36V20.5522L192.113 11.8193H185.641V8.78027H196.988V10.5712L190.235 19.3064H197.267Z" fill="white"/>
<path fill-rule="evenodd" clip-rule="evenodd" d="M211.844 8.78027V20.7156V20.9872C211.844 24.6492 209.909 27.9048 205.119 27.9048C200.636 27.9048 198.199 25.0555 198.199 22.9133H201.701C201.701 22.9133 202.233 24.7309 205.007 24.7309C207.361 24.7309 208.342 23.4277 208.342 21.5304V20.9606C207.724 21.6388 206.549 22.4782 204.448 22.4782C200.777 22.4782 198.48 19.9029 198.48 16.1326L198.45 8.78027H202.093V15.3178C202.093 17.1618 202.767 19.3331 205.091 19.3331C206.296 19.3331 208.285 18.7632 208.285 15.1543V8.78027H211.844Z" fill="white"/>
<path fill-rule="evenodd" clip-rule="evenodd" d="M36.1625 18.2723C36.1625 19.1181 36.4957 19.467 37.114 19.467C37.5496 19.467 37.8326 19.4164 38.2453 19.2926L38.476 22.0799C37.7047 22.3272 36.9589 22.4774 36.0074 22.4774C33.8242 22.4774 32.4873 21.7817 32.4873 18.7693V3.35645H36.1625V18.2723Z" fill="white"/>
<path fill-rule="evenodd" clip-rule="evenodd" d="M75.0944 14.9942V22.3444H71.3665V15.8069C71.3665 13.9362 71.563 11.5754 68.9848 11.794C68.3142 11.847 66.4639 12.1449 66.4639 15.9704V22.3444H62.7658V15.8069C62.7658 13.9362 62.9619 11.5754 60.3841 11.794C59.711 11.847 57.8632 12.1449 57.8632 15.9704V22.3444H54.165V8.78124H57.56L57.5631 10.6641C57.5631 10.6641 58.8605 8.64648 61.2805 8.64648C64.1966 8.64648 65.3412 10.8429 65.3412 10.8429C65.3412 10.8429 66.5967 8.62012 69.7992 8.62012C73.4405 8.62012 75.0944 11.2241 75.0944 14.9942Z" fill="white"/>
<path fill-rule="evenodd" clip-rule="evenodd" d="M141.455 16.1305V8.78027H145.183V15.3178C145.183 15.7792 144.845 19.1962 147.535 19.3307C148.854 19.4125 151.206 18.7081 151.206 15.1543V8.78027H154.904V22.3434H151.514L151.498 20.4606C151.498 20.4606 149.967 22.4782 147.113 22.4782C143.499 22.4782 141.455 19.8742 141.455 16.1305Z" fill="white"/>
<path fill-rule="evenodd" clip-rule="evenodd" d="M6.92882 17.1851L14.4401 20.6578C15.3711 21.0884 16.0282 21.8111 16.3831 22.6401C17.2807 24.7394 16.0539 26.8864 14.1281 27.6586C12.2019 28.4304 10.1491 27.9337 9.21568 25.7506L5.94677 18.0861C5.69346 17.492 6.3298 16.9082 6.92882 17.1851Z" fill="#FFC233"/>
<path fill-rule="evenodd" clip-rule="evenodd" d="M7.37906 14.9381L15.1327 12.0071C17.7096 11.033 20.5245 12.8761 20.4865 15.5541C20.4859 15.5891 20.4853 15.624 20.4844 15.6593C20.4287 18.2671 17.6921 20.0199 15.1718 19.0973L7.3864 16.2478C6.76536 16.0206 6.76077 15.1718 7.37906 14.9381Z" fill="#FFC233"/>
<path fill-rule="evenodd" clip-rule="evenodd" d="M6.94499 13.9224L14.5671 10.6837C17.0999 9.60736 17.7427 6.37695 15.759 4.51043C15.733 4.48585 15.707 4.46156 15.6807 4.43728C13.7358 2.63207 10.5208 3.26767 9.41358 5.64539L5.99323 12.9915C5.72033 13.5773 6.3371 14.1806 6.94499 13.9224Z" fill="#FFC233"/>
<path fill-rule="evenodd" clip-rule="evenodd" d="M4.98349 12.6426L7.75465 5.04415C8.09822 4.102 8.03458 3.1412 7.67939 2.3122C6.77994 0.21378 4.34409 -0.463579 2.41853 0.309741C0.493284 1.08336 -0.594621 2.84029 0.340622 5.02253L3.63095 12.6787C3.8861 13.272 4.76261 13.2486 4.98349 12.6426Z" fill="#FFC233"/>
</g>
</g>
<defs>
<clipPath id="clip0_1_52058">
<rect width="212" height="28" fill="white"/>
</clipPath>
<clipPath id="clip1_1_52058">
<rect width="212" height="28" fill="white"/>
</clipPath>
</defs>
</svg>
